/videos/c8a76bdd-cfc1-098e-a827-72b0930c8d45/hls1/main/0.ts

{"Protocol":0,"Id":"c8a76bddcfc1098ea82772b0930c8d45","Path":"/data/tvshows/Top Gear/Season 22/Top Gear - S22E02 - Episode 2 HDTV-1080p.mkv","EncoderPath":null,"EncoderProtocol":null,"Type":0,"Container":"mkv,webm","Size":3391409664,"Name":"Top Gear - S22E02 - Episode 2 HDTV-1080p","IsRemote":false,"ETag":"8a1493b40f1ffa7abbd4e204dcaf780c","RunTimeTicks":37442400256,"ReadAtNativeFramerate":false,"IgnoreDts":false,"IgnoreIndex":false,"GenPtsInput":false,"SupportsTranscoding":true,"SupportsDirectStream":true,"SupportsDirectPlay":true,"IsInfiniteStream":false,"RequiresOpening":false,"OpenToken":null,"RequiresClosing":false,"LiveStreamId":null,"BufferMs":null,"RequiresLooping":false,"SupportsProbing":true,"VideoType":0,"IsoType":null,"Video3DFormat":null,"MediaStreams":[{"Codec":"subrip","CodecTag":null,"Language":null,"ColorRange":null,"ColorSpace":null,"ColorTransfer":null,"ColorPrimaries":null,"DvVersionMajor":null,"DvVersionMinor":null,"DvProfile":null,"DvLevel":null,"RpuPresentFlag":null,"ElPresentFlag":null,"BlPresentFlag":null,"DvBlSignalCompatibilityId":null,"Comment":null,"TimeBase":"1/1000","CodecTimeBase":null,"Title":null,"VideoRange":null,"VideoRangeType":null,"VideoDoViTitle":null,"LocalizedUndefined":"Undefined","LocalizedDefault":"Default","LocalizedForced":"Forced","LocalizedExternal":"External","DisplayTitle":"Undefined - Default - SUBRIP","NalLengthSize":null,"IsInterlaced":false,"IsAVC":null,"ChannelLayout":null,"BitRate":null,"BitDepth":null,"RefFrames":null,"PacketLength":null,"Channels":null,"SampleRate":null,"IsDefault":true,"IsForced":false,"Height":null,"Width":null,"AverageFrameRate":null,"RealFrameRate":null,"Profile":null,"Type":2,"AspectRatio":null,"Index":0,"Score":null,"IsExternal":false,"DeliveryMethod":null,"DeliveryUrl":null,"IsExternalUrl":null,"IsTextSubtitleStream":true,"SupportsExternalStream":true,"Path":null,"PixelFormat":null,"Level":0,"IsAnamorphic":null},{"Codec":"h264","CodecTag":null,"Language":null,"ColorRange":null,"ColorSpace":"bt709","ColorTransfer":"bt709","ColorPrimaries":"bt709","DvVersionMajor":null,"DvVersionMinor":null,"DvProfile":null,"DvLevel":null,"RpuPresentFlag":null,"ElPresentFlag":null,"BlPresentFlag":null,"DvBlSignalCompatibilityId":null,"Comment":null,"TimeBase":"1/1000","CodecTimeBase":null,"Title":null,"VideoRange":"SDR","VideoRangeType":"SDR","VideoDoViTitle":null,"LocalizedUndefined":null,"LocalizedDefault":null,"LocalizedForced":null,"LocalizedExternal":null,"DisplayTitle":"1080i H264 SDR","NalLengthSize":"4","IsInterlaced":true,"IsAVC":true,"ChannelLayout":null,"BitRate":7246137,"BitDepth":8,"RefFrames":1,"PacketLength":null,"Channels":null,"SampleRate":null,"IsDefault":true,"IsForced":false,"Height":1080,"Width":1920,"AverageFrameRate":25,"RealFrameRate":25,"Profile":"High","Type":1,"AspectRatio":"16:9","Index":1,"Score":null,"IsExternal":false,"DeliveryMethod":null,"DeliveryUrl":null,"IsExternalUrl":null,"IsTextSubtitleStream":false,"SupportsExternalStream":false,"Path":null,"PixelFormat":"yuv420p","Level":40,"IsAnamorphic":null},{"Codec":"ac3","CodecTag":null,"Language":"eng","ColorRange":null,"ColorSpace":null,"ColorTransfer":null,"ColorPrimaries":null,"DvVersionMajor":null,"DvVersionMinor":null,"DvProfile":null,"DvLevel":null,"RpuPresentFlag":null,"ElPresentFlag":null,"BlPresentFlag":null,"DvBlSignalCompatibilityId":null,"Comment":null,"TimeBase":"1/1000","CodecTimeBase":null,"Title":null,"VideoRange":null,"VideoRangeType":null,"VideoDoViTitle":null,"LocalizedUndefined":null,"LocalizedDefault":null,"LocalizedForced":null,"LocalizedExternal":null,"DisplayTitle":"English - Dolby Digital - Stereo - Default","NalLengthSize":null,"IsInterlaced":false,"IsAVC":null,"ChannelLayout":"stereo","BitRate":192000,"BitDepth":null,"RefFrames":null,"PacketLength":null,"Channels":2,"SampleRate":48000,"IsDefault":true,"IsForced":false,"Height":null,"Width":null,"AverageFrameRate":null,"RealFrameRate":null,"Profile":null,"Type":0,"AspectRatio":null,"Index":2,"Score":null,"IsExternal":false,"DeliveryMethod":null,"DeliveryUrl":null,"IsExternalUrl":null,"IsTextSubtitleStream":false,"SupportsExternalStream":false,"Path":null,"PixelFormat":null,"Level":0,"IsAnamorphic":null}],"MediaAttachments":[],"Formats":[],"Bitrate":7438137,"Timestamp":null,"RequiredHttpHeaders":{},"TranscodingUrl":null,"TranscodingSubProtocol":null,"TranscodingContainer":null,"AnalyzeDurationMs":null,"DefaultAudioStreamIndex":null,"DefaultSubtitleStreamIndex":null}

/usr/lib/jellyfin-ffmpeg/ffmpeg -analyzeduration 200M -f matroska,webm -autorotate 0 -i file:"/data/tvshows/Top Gear/Season 22/Top Gear - S22E02 - Episode 2 HDTV-1080p.mkv" -map_metadata -1 -map_chapters -1 -threads 0 -map 0:1 -map 0:2 -map -0:s -codec:v:0 libx264 -preset veryfast -crf 23 -maxrate 7246137 -bufsize 14492274 -profile:v:0 high -level 40 -x264opts:0 subme=0:me_range=4:rc_lookahead=10:me=dia:no_chroma_me:8x8dct=0:partitions=none -force_key_frames:0 "expr:gte(t,0+n_forced*3)" -sc_threshold:v:0 0 -vf "setparams=color_primaries=bt709:color_trc=bt709:colorspace=bt709,yadif=0:-1:0,scale=trunc(min(max(iw\,ih*a)\,min(1920\,1080*a))/2)*2:trunc(min(max(iw/a\,ih)\,min(1920/a\,1080))/2)*2,format=yuv420p" -codec:a:0 libfdk_aac -ac 2 -ab 256000 -copyts -avoid_negative_ts disabled -max_muxing_queue_size 2048 -f hls -max_delay 5000000 -hls_time 3 -hls_segment_type mpegts -start_number 0 -hls_segment_filename "/data/transcodes/2b606033e229c3d347539a6a764af52f%d.ts" -hls_playlist_type vod -hls_list_size 0 -y "/data/transcodes/2b606033e229c3d347539a6a764af52f.m3u8"


ffmpeg version 5.1.3-Jellyfin Copyright (c) 2000-2022 the FFmpeg developers
  built with gcc 11 (Ubuntu 11.3.0-1ubuntu1~22.04.1)
  configuration: --prefix=/usr/lib/jellyfin-ffmpeg --target-os=linux --extra-libs=-lfftw3f --extra-version=Jellyfin --disable-doc --disable-ffplay --disable-ptx-compression --disable-static --disable-libxcb --disable-sdl2 --disable-xlib --enable-lto --enable-gpl --enable-version3 --enable-shared --enable-gmp --enable-gnutls --enable-chromaprint --enable-libdrm --enable-libass --enable-libfreetype --enable-libfribidi --enable-libfontconfig --enable-libbluray --enable-libmp3lame --enable-libopus --enable-libtheora --enable-libvorbis --enable-libopenmpt --enable-libdav1d --enable-libwebp --enable-libvpx --enable-libx264 --enable-libx265 --enable-libzvbi --enable-libzimg --enable-libfdk-aac --arch=amd64 --enable-libsvtav1 --enable-libshaderc --enable-libplacebo --enable-vulkan --enable-opencl --enable-vaapi --enable-amf --enable-libmfx --enable-ffnvcodec --enable-cuda --enable-cuda-llvm --enable-cuvid --enable-nvdec --enable-nvenc
  libavutil      57. 28.100 / 57. 28.100
  libavcodec     59. 37.100 / 59. 37.100
  libavformat    59. 27.100 / 59. 27.100
  libavdevice    59.  7.100 / 59.  7.100
  libavfilter     8. 44.100 /  8. 44.100
  libswscale      6.  7.100 /  6.  7.100
  libswresample   4.  7.100 /  4.  7.100
  libpostproc    56.  6.100 / 56.  6.100
[h264 @ 0x55997b6643c0] mmco: unref short failure
    Last message repeated 1 times
[h264 @ 0x55997b6643c0] Increasing reorder buffer to 2
[h264 @ 0x55997b6643c0] Increasing reorder buffer to 3
[h264 @ 0x55997b6643c0] mmco: unref short failure
Input #0, matroska,webm, from 'file:/data/tvshows/Top Gear/Season 22/Top Gear - S22E02 - Episode 2 HDTV-1080p.mkv':
  Metadata:
    encoder         : libebml v1.3.1 + libmatroska v1.4.2
    creation_time   : 2015-02-01T21:04:52.000000Z
  Duration: 01:02:24.24, start: 0.000000, bitrate: 7246 kb/s
  Stream #0:0: Subtitle: subrip (default)
    Metadata:
      BPS             : 95
      BPS-eng         : 95
      DURATION        : 01:01:49.880000000
      DURATION-eng    : 01:01:49.880000000
      NUMBER_OF_FRAMES: 1100
      NUMBER_OF_FRAMES-eng: 1100
      NUMBER_OF_BYTES : 44383
      NUMBER_OF_BYTES-eng: 44383
      _STATISTICS_WRITING_APP: mkvmerge v7.5.0 ('Glass Culture') 64bit built on Jan  4 2015 16:48:44
      _STATISTICS_WRITING_APP-eng: mkvmerge v7.5.0 ('Glass Culture') 64bit built on Jan  4 2015 16:48:44
      _STATISTICS_WRITING_DATE_UTC: 2015-02-01 21:04:52
      _STATISTICS_WRITING_DATE_UTC-eng: 2015-02-01 21:04:52
      _STATISTICS_TAGS: BPS DURATION NUMBER_OF_FRAMES NUMBER_OF_BYTES
      _STATISTICS_TAGS-eng: BPS DURATION NUMBER_OF_FRAMES NUMBER_OF_BYTES
  Stream #0:1: Video: h264 (High), yuv420p(tv, bt709, top first), 1920x1080 [SAR 1:1 DAR 16:9], 25 fps, 25 tbr, 1k tbn (default)
    Metadata:
      BPS             : 7051852
      BPS-eng         : 7051852
      DURATION        : 01:02:24.240000000
      DURATION-eng    : 01:02:24.240000000
      NUMBER_OF_FRAMES: 94413
      NUMBER_OF_FRAMES-eng: 94413
      NUMBER_OF_BYTES : 3300478459
      NUMBER_OF_BYTES-eng: 3300478459
      _STATISTICS_WRITING_APP: mkvmerge v7.5.0 ('Glass Culture') 64bit built on Jan  4 2015 16:48:44
      _STATISTICS_WRITING_APP-eng: mkvmerge v7.5.0 ('Glass Culture') 64bit built on Jan  4 2015 16:48:44
      _STATISTICS_WRITING_DATE_UTC: 2015-02-01 21:04:52
      _STATISTICS_WRITING_DATE_UTC-eng: 2015-02-01 21:04:52
      _STATISTICS_TAGS: BPS DURATION NUMBER_OF_FRAMES NUMBER_OF_BYTES
      _STATISTICS_TAGS-eng: BPS DURATION NUMBER_OF_FRAMES NUMBER_OF_BYTES
  Stream #0:2(eng): Audio: ac3, 48000 Hz, stereo, fltp, 192 kb/s (default)
    Metadata:
      BPS             : 192000
      BPS-eng         : 192000
      DURATION        : 01:02:23.392000000
      DURATION-eng    : 01:02:23.392000000
      NUMBER_OF_FRAMES: 116981
      NUMBER_OF_FRAMES-eng: 116981
      NUMBER_OF_BYTES : 89841408
      NUMBER_OF_BYTES-eng: 89841408
      _STATISTICS_WRITING_APP: mkvmerge v7.5.0 ('Glass Culture') 64bit built on Jan  4 2015 16:48:44
      _STATISTICS_WRITING_APP-eng: mkvmerge v7.5.0 ('Glass Culture') 64bit built on Jan  4 2015 16:48:44
      _STATISTICS_WRITING_DATE_UTC: 2015-02-01 21:04:52
      _STATISTICS_WRITING_DATE_UTC-eng: 2015-02-01 21:04:52
      _STATISTICS_TAGS: BPS DURATION NUMBER_OF_FRAMES NUMBER_OF_BYTES
      _STATISTICS_TAGS-eng: BPS DURATION NUMBER_OF_FRAMES NUMBER_OF_BYTES
Stream mapping:
  Stream #0:1 -> #0:0 (h264 (native) -> h264 (libx264))
  Stream #0:2 -> #0:1 (ac3 (native) -> aac (libfdk_aac))
Press [q] to stop, [?] for help
[h264 @ 0x55997b6799c0] mmco: unref short failure
[h264 @ 0x55997b764a00] mmco: unref short failure
[libx264 @ 0x55997b67c280] using SAR=1/1
[libx264 @ 0x55997b67c280] using cpu capabilities: MMX2 SSE2Fast SSSE3 SSE4.2 AVX FMA3 BMI2 AVX2
[libx264 @ 0x55997b67c280] profile Main, level 4.0, 4:2:0, 8-bit
[libx264 @ 0x55997b67c280] 264 - core 163 r3060 5db6aa6 - H.264/MPEG-4 AVC codec - Copyleft 2003-2021 - http://www.videolan.org/x264.html - options: cabac=1 ref=1 deblock=1:0:0 analyse=0x1:0 me=dia subme=0 psy=1 psy_rd=1.00:0.00 mixed_ref=0 me_range=4 chroma_me=0 trellis=0 8x8dct=0 cqm=0 deadzone=21,11 fast_pskip=1 chroma_qp_offset=0 threads=6 lookahead_threads=1 sliced_threads=0 nr=0 decimate=1 interlaced=0 bluray_compat=0 constrained_intra=0 bframes=3 b_pyramid=2 b_adapt=1 b_bias=0 direct=1 weightb=1 open_gop=0 weightp=1 keyint=250 keyint_min=25 scenecut=0 intra_refresh=0 rc_lookahead=10 rc=crf mbtree=1 crf=23.0 qcomp=0.60 qpmin=0 qpmax=69 qpstep=4 vbv_maxrate=7246 vbv_bufsize=14492 crf_max=0.0 nal_hrd=none filler=0 ip_ratio=1.40 aq=1:1.00
Output #0, hls, to '/data/transcodes/2b606033e229c3d347539a6a764af52f.m3u8':
  Metadata:
    encoder         : Lavf59.27.100
  Stream #0:0: Video: h264, yuv420p(tv, bt709, progressive), 1920x1080 [SAR 1:1 DAR 16:9], q=2-31, 25 fps, 90k tbn (default)
    Metadata:
      encoder         : Lavc59.37.100 libx264
    Side data:
      cpb: bitrate max/min/avg: 7246000/0/0 buffer size: 14492000 vbv_delay: N/A
  Stream #0:1: Audio: aac, 48000 Hz, stereo, s16, 256 kb/s (default)
    Metadata:
      encoder         : Lavc59.37.100 libfdk_aac
frame=    1 fps=0.0 q=0.0 size=N/A time=00:00:00.00 bitrate=N/A speed=   0x    
[h264 @ 0x55997b675180] mmco: unref short failure
frame=   20 fps=0.0 q=0.0 size=N/A time=00:00:00.76 bitrate=N/A speed=1.17x    
frame=   37 fps= 32 q=28.0 size=N/A time=00:00:01.53 bitrate=N/A speed=1.32x    
frame=   61 fps= 37 q=32.0 size=N/A time=00:00:02.24 bitrate=N/A speed=1.34x    
frame=   92 fps= 42 q=28.0 size=N/A time=00:00:03.69 bitrate=N/A speed=1.68x    
[hls @ 0x55997b665bc0] Opening '/data/transcodes/2b606033e229c3d347539a6a764af52f0.ts' for writing
frame=  116 fps= 43 q=28.0 size=N/A time=00:00:04.45 bitrate=N/A speed=1.64x    
frame=  141 fps= 44 q=28.0 size=N/A time=00:00:05.56 bitrate=N/A speed=1.73x    
frame=  169 fps= 45 q=28.0 size=N/A time=00:00:06.84 bitrate=N/A speed=1.83x    
[hls @ 0x55997b665bc0] Opening '/data/transcodes/2b606033e229c3d347539a6a764af52f1.ts' for writing
frame=  184 fps= 43 q=28.0 size=N/A time=00:00:07.16 bitrate=N/A speed=1.69x    
frame=  204 fps= 43 q=28.0 size=N/A time=00:00:07.97 bitrate=N/A speed=1.67x    
frame=  230 fps= 43 q=28.0 size=N/A time=00:00:09.06 bitrate=N/A speed=1.71x    
[hls @ 0x55997b665bc0] Opening '/data/transcodes/2b606033e229c3d347539a6a764af52f2.ts' for writing
frame=  254 fps= 44 q=28.0 size=N/A time=00:00:10.30 bitrate=N/A speed=1.78x    
frame=  280 fps= 44 q=28.0 size=N/A time=00:00:11.32 bitrate=N/A speed=1.79x    
frame=  303 fps= 44 q=28.0 size=N/A time=00:00:12.28 bitrate=N/A speed= 1.8x    
[hls @ 0x55997b665bc0] Opening '/data/transcodes/2b606033e229c3d347539a6a764af52f3.ts' for writing
frame=  321 fps= 44 q=28.0 size=N/A time=00:00:12.86 bitrate=N/A speed=1.75x    
frame=  327 fps= 42 q=28.0 size=N/A time=00:00:12.90 bitrate=N/A speed=1.65x    
frame=  348 fps= 42 q=28.0 size=N/A time=00:00:13.88 bitrate=N/A speed=1.66x    
frame=  359 fps= 41 q=28.0 size=N/A time=00:00:14.20 bitrate=N/A speed= 1.6x    
frame=  377 fps= 40 q=28.0 size=N/A time=00:00:15.10 bitrate=N/A speed=1.61x    
[hls @ 0x55997b665bc0] Opening '/data/transcodes/2b606033e229c3d347539a6a764af52f4.ts' for writing
frame=  397 fps= 39 q=28.0 size=N/A time=00:00:15.85 bitrate=N/A speed=1.57x    
frame=  421 fps= 39 q=28.0 size=N/A time=00:00:16.64 bitrate=N/A speed=1.56x    
frame=  447 fps= 40 q=28.0 size=N/A time=00:00:18.09 bitrate=N/A speed=1.62x    
[hls @ 0x55997b665bc0] Opening '/data/transcodes/2b606033e229c3d347539a6a764af52f5.ts' for writing
frame=  472 fps= 40 q=28.0 size=N/A time=00:00:18.66 bitrate=N/A speed=1.57x    
frame=  497 fps= 40 q=28.0 size=N/A time=00:00:19.84 bitrate=N/A speed= 1.6x    
frame=  522 fps= 40 q=28.0 size=N/A time=00:00:20.86 bitrate=N/A speed=1.61x    
[hls @ 0x55997b665bc0] Opening '/data/transcodes/2b606033e229c3d347539a6a764af52f6.ts' for writing
frame=  547 fps= 40 q=28.0 size=N/A time=00:00:22.01 bitrate=N/A speed=1.62x    
frame=  572 fps= 41 q=28.0 size=N/A time=00:00:22.78 bitrate=N/A speed=1.62x    
file:/data/tvshows/Top Gear/Season 22/Top Gear - S22E02 - Episode 2 HDTV-1080p.mkv: corrupt decoded frame in stream 1
frame=  596 fps= 41 q=28.0 size=N/A time=00:00:23.85 bitrate=N/A speed=1.64x    
file:/data/tvshows/Top Gear/Season 22/Top Gear - S22E02 - Episode 2 HDTV-1080p.mkv: corrupt decoded frame in stream 1
    Last message repeated 1 times
[hls @ 0x55997b665bc0] Opening '/data/transcodes/2b606033e229c3d347539a6a764af52f7.ts' for writing
frame=  621 fps= 40 q=28.0 size=N/A time=00:00:24.89 bitrate=N/A speed=1.61x    
file:/data/tvshows/Top Gear/Season 22/Top Gear - S22E02 - Episode 2 HDTV-1080p.mkv: corrupt decoded frame in stream 1
frame=  637 fps= 40 q=28.0 size=N/A time=00:00:25.40 bitrate=N/A speed=1.59x    
file:/data/tvshows/Top Gear/Season 22/Top Gear - S22E02 - Episode 2 HDTV-1080p.mkv: corrupt decoded frame in stream 1
frame=  654 fps= 40 q=28.0 size=N/A time=00:00:26.04 bitrate=N/A speed=1.58x    
frame=  672 fps= 40 q=28.0 size=N/A time=00:00:26.81 bitrate=N/A speed=1.58x    
file:/data/tvshows/Top Gear/Season 22/Top Gear - S22E02 - Episode 2 HDTV-1080p.mkv: corrupt decoded frame in stream 1
frame=  688 fps= 39 q=28.0 size=N/A time=00:00:27.30 bitrate=N/A speed=1.56x    
file:/data/tvshows/Top Gear/Season 22/Top Gear - S22E02 - Episode 2 HDTV-1080p.mkv: corrupt decoded frame in stream 1
[hls @ 0x55997b665bc0] Opening '/data/transcodes/2b606033e229c3d347539a6a764af52f8.ts' for writing
frame=  696 fps= 39 q=28.0 size=N/A time=00:00:27.84 bitrate=N/A speed=1.54x    
frame=  716 fps= 38 q=28.0 size=N/A time=00:00:28.71 bitrate=N/A speed=1.54x    
file:/data/tvshows/Top Gear/Season 22/Top Gear - S22E02 - Episode 2 HDTV-1080p.mkv: corrupt decoded frame in stream 1
    Last message repeated 2 times
frame=  733 fps= 38 q=28.0 size=N/A time=00:00:29.44 bitrate=N/A speed=1.54x    
file:/data/tvshows/Top Gear/Season 22/Top Gear - S22E02 - Episode 2 HDTV-1080p.mkv: corrupt decoded frame in stream 1
frame=  748 fps= 38 q=28.0 size=N/A time=00:00:29.95 bitrate=N/A speed=1.53x    
file:/data/tvshows/Top Gear/Season 22/Top Gear - S22E02 - Episode 2 HDTV-1080p.mkv: corrupt decoded frame in stream 1
    Last message repeated 1 times
frame=  768 fps= 38 q=29.0 size=N/A time=00:00:30.72 bitrate=N/A speed=1.52x    
[hls @ 0x55997b665bc0] Opening '/data/transcodes/2b606033e229c3d347539a6a764af52f9.ts' for writing
frame=  778 fps= 38 q=28.0 size=N/A time=00:00:31.33 bitrate=N/A speed=1.52x    
frame=  796 fps= 38 q=28.0 size=N/A time=00:00:31.78 bitrate=N/A speed= 1.5x    
frame=  818 fps= 38 q=28.0 size=N/A time=00:00:32.61 bitrate=N/A speed= 1.5x    
frame=  838 fps= 38 q=28.0 size=N/A time=00:00:33.64 bitrate=N/A speed=1.51x    
[hls @ 0x55997b665bc0] Opening '/data/transcodes/2b606033e229c3d347539a6a764af52f10.ts' for writing
frame=  847 fps= 37 q=28.0 size=N/A time=00:00:33.89 bitrate=N/A speed=1.49x    
frame=  868 fps= 37 q=28.0 size=N/A time=00:00:34.85 bitrate=N/A speed=1.49x    
frame=  890 fps= 37 q=28.0 size=N/A time=00:00:35.39 bitrate=N/A speed=1.48x    
file:/data/tvshows/Top Gear/Season 22/Top Gear - S22E02 - Episode 2 HDTV-1080p.mkv: corrupt decoded frame in stream 1
    Last message repeated 1 times